<svg xmlns="http://www.w3.org/2000/svg" xmlns:xlink="http://www.w3.org/1999/xlink" width="500" zoomAndPan="magnify" viewBox="0 0 375 374.999991" height="500" preserveAspectRatio="xMidYMid meet" version="1.0"><defs><g/></defs><path fill="#ffffff" d="M 44.003906 170.25 L 330.996094 170.25 L 330.996094 177 L 44.003906 177 Z M 44.003906 170.25 " fill-opacity="1" fill-rule="nonzero"/><g fill="#ffffff" fill-opacity="1"><g transform="translate(44.003907, 166.501491)"><g><path d="M 29.359375 1.75 C 23.566406 1.75 18.671875 0.609375 14.671875 -1.671875 C 10.679688 -3.960938 7.644531 -7.335938 5.5625 -11.796875 C 3.488281 -16.265625 2.453125 -21.722656 2.453125 -28.171875 C 2.453125 -34.660156 3.476562 -40.101562 5.53125 -44.5 C 7.59375 -48.894531 10.597656 -52.210938 14.546875 -54.453125 C 18.492188 -56.691406 23.316406 -57.8125 29.015625 -57.8125 C 32.609375 -57.8125 36.097656 -57.34375 39.484375 -56.40625 C 42.867188 -55.476562 46.222656 -54.078125 49.546875 -52.203125 L 47.296875 -48.078125 C 44.304688 -49.710938 41.363281 -50.925781 38.46875 -51.71875 C 35.570312 -52.507812 32.582031 -52.90625 29.5 -52.90625 C 22.488281 -52.90625 17.1875 -50.8125 13.59375 -46.625 C 10 -42.445312 8.203125 -36.316406 8.203125 -28.234375 C 8.203125 -22.867188 9.03125 -18.316406 10.6875 -14.578125 C 12.34375 -10.835938 14.78125 -8 18 -6.0625 C 21.226562 -4.125 25.179688 -3.15625 29.859375 -3.15625 C 36.210938 -3.15625 42.144531 -5 47.65625 -8.6875 L 50.03125 -4.484375 C 46.570312 -2.335938 43.21875 -0.765625 39.96875 0.234375 C 36.726562 1.242188 33.191406 1.75 29.359375 1.75 Z M 30.0625 -6.9375 C 24.363281 -6.9375 20.019531 -8.734375 17.03125 -12.328125 C 14.039062 -15.929688 12.546875 -21.234375 12.546875 -28.234375 C 12.546875 -35.203125 14.039062 -40.425781 17.03125 -43.90625 C 20.019531 -47.382812 24.34375 -49.125 30 -49.125 C 35.320312 -49.125 40.410156 -47.582031 45.265625 -44.5 L 42.890625 -40.21875 C 40.742188 -41.625 38.675781 -42.640625 36.6875 -43.265625 C 34.695312 -43.898438 32.648438 -44.21875 30.546875 -44.21875 C 27.796875 -44.21875 25.519531 -43.691406 23.71875 -42.640625 C 21.925781 -41.585938 20.570312 -39.878906 19.65625 -37.515625 C 18.75 -35.160156 18.296875 -32.066406 18.296875 -28.234375 C 18.296875 -22.441406 19.320312 -18.257812 21.375 -15.6875 C 23.425781 -13.125 26.4375 -11.84375 30.40625 -11.84375 C 34.945312 -11.84375 39.222656 -13.316406 43.234375 -16.265625 L 45.625 -12.1875 C 42.957031 -10.363281 40.375 -9.03125 37.875 -8.1875 C 35.375 -7.351562 32.769531 -6.9375 30.0625 -6.9375 Z M 30.0625 -6.9375 "/></g></g></g><g fill="#ffffff" fill-opacity="1"><g transform="translate(94.802087, 166.501491)"><g><path d="M 9.8125 -56.0625 L 9.8125 -4.90625 L 49.0625 -4.90625 L 49.0625 0 L 4.203125 0 L 4.203125 -56.0625 Z M 19.625 -56.0625 L 19.625 -13.734375 L 49.0625 -13.734375 L 49.0625 -8.828125 L 14.015625 -8.828125 L 14.015625 -56.0625 Z M 19.625 -56.0625 "/></g></g></g><g fill="#ffffff" fill-opacity="1"><g transform="translate(145.950594, 166.501491)"><g><path d="M 9.8125 -56.0625 L 9.8125 0 L 4.203125 0 L 4.203125 -56.0625 Z M 19.625 -56.0625 L 19.625 0 L 14.015625 0 L 14.015625 -56.0625 Z M 19.625 -56.0625 "/></g></g></g><g fill="#ffffff" fill-opacity="1"><g transform="translate(169.773186, 166.501491)"><g><path d="M 48.359375 -56.0625 L 48.359375 -51.15625 L 9.8125 -51.15625 L 9.8125 -4.90625 L 49.0625 -4.90625 L 49.0625 0 L 4.203125 0 L 4.203125 -56.0625 Z M 48.359375 -47.234375 L 48.359375 -42.328125 L 19.625 -42.328125 L 19.625 -35.109375 L 47.65625 -35.109375 L 47.65625 -30.203125 L 14.015625 -30.203125 L 14.015625 -47.234375 Z M 47.65625 -26.28125 L 47.65625 -21.375 L 19.625 -21.375 L 19.625 -13.734375 L 49.0625 -13.734375 L 49.0625 -8.828125 L 14.015625 -8.828125 L 14.015625 -26.28125 Z M 47.65625 -26.28125 "/></g></g></g><g fill="#ffffff" fill-opacity="1"><g transform="translate(221.342091, 166.501491)"><g><path d="M 9.8125 -56.0625 L 9.8125 0 L 4.203125 0 L 4.203125 -56.0625 Z M 19.34375 -56.0625 L 37.84375 -28.09375 L 37.84375 -56.0625 L 43.453125 -56.0625 L 43.453125 -9.59375 L 13.171875 -56.0625 Z M 53.265625 -56.0625 L 53.265625 0 L 47.65625 0 L 47.65625 -56.0625 Z M 44.421875 0 L 38.265625 0 L 19.625 -28.03125 L 19.625 0 L 14.015625 0 L 14.015625 -46.671875 Z M 44.421875 0 "/></g></g></g><g fill="#ffffff" fill-opacity="1"><g transform="translate(278.796578, 166.501491)"><g><path d="M 51.15625 -56.0625 L 51.15625 -51.15625 L 1.046875 -51.15625 L 1.046875 -56.0625 Z M 1.046875 -42.328125 L 1.046875 -47.234375 L 24.03125 -47.234375 L 24.03125 0 L 18.4375 0 L 18.4375 -42.328125 Z M 51.15625 -47.234375 L 51.15625 -42.328125 L 33.84375 -42.328125 L 33.84375 0 L 28.234375 0 L 28.234375 -47.234375 Z M 51.15625 -47.234375 "/></g></g></g><g fill="#ffffff" fill-opacity="1"><g transform="translate(26.132815, 264.001485)"><g><path d="M 26.625 -7.359375 C 23.40625 -7.359375 19.851562 -7.894531 15.96875 -8.96875 C 12.09375 -10.039062 8.148438 -11.5625 4.140625 -13.53125 L 6.09375 -18.296875 C 9.96875 -16.328125 13.609375 -14.828125 17.015625 -13.796875 C 20.429688 -12.773438 23.773438 -12.265625 27.046875 -12.265625 C 32.515625 -12.265625 35.25 -13.804688 35.25 -16.890625 C 35.25 -18.015625 34.78125 -18.914062 33.84375 -19.59375 C 32.914062 -20.269531 31.75 -20.78125 30.34375 -21.125 C 28.9375 -21.476562 26.90625 -21.910156 24.25 -22.421875 C 19.90625 -23.210938 16.316406 -24.078125 13.484375 -25.015625 C 10.660156 -25.953125 8.21875 -27.550781 6.15625 -29.8125 C 4.101562 -32.082031 3.078125 -35.25 3.078125 -39.3125 C 3.078125 -43.09375 4.023438 -46.335938 5.921875 -49.046875 C 7.816406 -51.765625 10.523438 -53.847656 14.046875 -55.296875 C 17.578125 -56.742188 21.769531 -57.46875 26.625 -57.46875 C 30.457031 -57.46875 34.472656 -57.035156 38.671875 -56.171875 C 42.878906 -55.304688 46.550781 -54.171875 49.6875 -52.765625 L 47.9375 -48.078125 C 44.476562 -49.472656 40.890625 -50.566406 37.171875 -51.359375 C 33.460938 -52.160156 29.945312 -52.5625 26.625 -52.5625 C 23.164062 -52.5625 20.09375 -52.09375 17.40625 -51.15625 C 14.726562 -50.21875 12.628906 -48.78125 11.109375 -46.84375 C 9.585938 -44.90625 8.828125 -42.46875 8.828125 -39.53125 C 8.828125 -36.539062 9.617188 -34.203125 11.203125 -32.515625 C 12.796875 -30.835938 14.738281 -29.644531 17.03125 -28.9375 C 19.320312 -28.238281 22.359375 -27.585938 26.140625 -26.984375 C 29.453125 -26.421875 32.085938 -25.859375 34.046875 -25.296875 C 36.015625 -24.734375 37.664062 -23.820312 39 -22.5625 C 40.332031 -21.300781 41 -19.570312 41 -17.375 C 41 -14.0625 39.769531 -11.5625 37.3125 -9.875 C 34.863281 -8.195312 31.300781 -7.359375 26.625 -7.359375 Z M 26.34375 1.40625 C 21.957031 1.40625 17.53125 0.820312 13.0625 -0.34375 C 8.601562 -1.519531 4.484375 -3.179688 0.703125 -5.328125 L 2.734375 -10.09375 C 6.941406 -7.988281 11.097656 -6.375 15.203125 -5.25 C 19.316406 -4.132812 23.148438 -3.578125 26.703125 -3.578125 C 32.628906 -3.578125 37.21875 -4.753906 40.46875 -7.109375 C 43.71875 -9.472656 45.34375 -12.988281 45.34375 -17.65625 C 45.34375 -20.789062 44.523438 -23.207031 42.890625 -24.90625 C 41.253906 -26.613281 39.28125 -27.816406 36.96875 -28.515625 C 34.65625 -29.222656 31.582031 -29.878906 27.75 -30.484375 C 24.4375 -30.992188 21.820312 -31.515625 19.90625 -32.046875 C 17.988281 -32.585938 16.382812 -33.453125 15.09375 -34.640625 C 13.8125 -35.835938 13.171875 -37.515625 13.171875 -39.671875 C 13.171875 -42.753906 14.429688 -45.039062 16.953125 -46.53125 C 19.484375 -48.03125 22.828125 -48.78125 26.984375 -48.78125 C 30.109375 -48.78125 33.421875 -48.378906 36.921875 -47.578125 C 40.429688 -46.785156 43.632812 -45.710938 46.53125 -44.359375 L 44.84375 -39.796875 C 42.28125 -41.109375 39.46875 -42.113281 36.40625 -42.8125 C 33.34375 -43.519531 30.222656 -43.875 27.046875 -43.875 C 24.335938 -43.875 22.304688 -43.566406 20.953125 -42.953125 C 19.597656 -42.347656 18.921875 -41.367188 18.921875 -40.015625 C 18.921875 -39.035156 19.351562 -38.238281 20.21875 -37.625 C 21.082031 -37.019531 22.203125 -36.550781 23.578125 -36.21875 C 24.960938 -35.894531 26.890625 -35.503906 29.359375 -35.046875 C 33.703125 -34.296875 37.332031 -33.441406 40.25 -32.484375 C 43.175781 -31.523438 45.710938 -29.863281 47.859375 -27.5 C 50.015625 -25.144531 51.09375 -21.890625 51.09375 -17.734375 C 51.09375 -13.617188 50.0625 -10.132812 48 -7.28125 C 45.945312 -4.4375 43.0625 -2.273438 39.34375 -0.796875 C 35.632812 0.671875 31.300781 1.40625 26.34375 1.40625 Z M 26.34375 1.40625 "/></g></g></g><g fill="#ffffff" fill-opacity="1"><g transform="translate(79.313254, 264.001485)"><g><path d="M 32.59375 -56.0625 C 39.125 -56.0625 44.0625 -54.566406 47.40625 -51.578125 C 50.75 -48.585938 52.421875 -44.195312 52.421875 -38.40625 C 52.421875 -25.457031 45.503906 -18.984375 31.671875 -18.984375 L 19.625 -18.984375 L 19.625 0 L 14.015625 0 L 14.015625 -23.890625 L 30.484375 -23.890625 C 34.359375 -23.890625 37.472656 -24.378906 39.828125 -25.359375 C 42.191406 -26.347656 43.921875 -27.867188 45.015625 -29.921875 C 46.117188 -31.972656 46.671875 -34.679688 46.671875 -38.046875 C 46.671875 -42.578125 45.316406 -45.894531 42.609375 -48 C 39.898438 -50.101562 35.671875 -51.15625 29.921875 -51.15625 L 9.8125 -51.15625 L 9.8125 0 L 4.203125 0 L 4.203125 -56.0625 Z M 14.015625 -47.234375 L 30.828125 -47.234375 C 34.523438 -47.234375 37.363281 -46.425781 39.34375 -44.8125 C 41.332031 -43.195312 42.328125 -40.828125 42.328125 -37.703125 C 42.328125 -34.429688 41.414062 -31.96875 39.59375 -30.3125 C 37.769531 -28.65625 34.941406 -27.828125 31.109375 -27.828125 L 14.015625 -27.828125 Z M 31.109375 -32.71875 C 34.753906 -32.71875 36.578125 -34.351562 36.578125 -37.625 C 36.578125 -39.164062 36.117188 -40.332031 35.203125 -41.125 C 34.296875 -41.925781 32.929688 -42.328125 31.109375 -42.328125 L 19.625 -42.328125 L 19.625 -32.71875 Z M 31.109375 -32.71875 "/></g></g></g><g fill="#ffffff" fill-opacity="1"><g transform="translate(133.82495, 264.001485)"><g><path d="M 9.8125 -56.0625 L 9.8125 0 L 4.203125 0 L 4.203125 -56.0625 Z M 19.625 -56.0625 L 19.625 -35.171875 L 37.140625 -35.171875 L 37.140625 -56.0625 L 42.75 -56.0625 L 42.75 -30.28125 L 14.015625 -30.28125 L 14.015625 -56.0625 Z M 52.5625 -56.0625 L 52.5625 0 L 46.953125 0 L 46.953125 -56.0625 Z M 42.75 -26.34375 L 42.75 0 L 37.140625 0 L 37.140625 -21.4375 L 19.625 -21.4375 L 19.625 0 L 14.015625 0 L 14.015625 -26.34375 Z M 42.75 -26.34375 "/></g></g></g><g fill="#ffffff" fill-opacity="1"><g transform="translate(190.578772, 264.001485)"><g><path d="M 48.359375 -56.0625 L 48.359375 -51.15625 L 9.8125 -51.15625 L 9.8125 -4.90625 L 49.0625 -4.90625 L 49.0625 0 L 4.203125 0 L 4.203125 -56.0625 Z M 48.359375 -47.234375 L 48.359375 -42.328125 L 19.625 -42.328125 L 19.625 -35.109375 L 47.65625 -35.109375 L 47.65625 -30.203125 L 14.015625 -30.203125 L 14.015625 -47.234375 Z M 47.65625 -26.28125 L 47.65625 -21.375 L 19.625 -21.375 L 19.625 -13.734375 L 49.0625 -13.734375 L 49.0625 -8.828125 L 14.015625 -8.828125 L 14.015625 -26.28125 Z M 47.65625 -26.28125 "/></g></g></g><g fill="#ffffff" fill-opacity="1"><g transform="translate(242.147678, 264.001485)"><g><path d="M 31.53125 -56.0625 C 38.539062 -56.0625 43.796875 -54.613281 47.296875 -51.71875 C 50.804688 -48.820312 52.5625 -44.523438 52.5625 -38.828125 C 52.5625 -34.671875 51.800781 -31.203125 50.28125 -28.421875 C 48.757812 -25.640625 46.4375 -23.523438 43.3125 -22.078125 L 52.5625 0 L 46.671875 0 L 36.859375 -25.015625 C 40.273438 -25.671875 42.785156 -27.097656 44.390625 -29.296875 C 46.003906 -31.492188 46.8125 -34.53125 46.8125 -38.40625 C 46.8125 -42.75 45.46875 -45.957031 42.78125 -48.03125 C 40.09375 -50.113281 35.851562 -51.15625 30.0625 -51.15625 L 9.8125 -51.15625 L 9.8125 0 L 4.203125 0 L 4.203125 -56.0625 Z M 31.109375 -47.234375 C 34.847656 -47.234375 37.675781 -46.460938 39.59375 -44.921875 C 41.507812 -43.378906 42.46875 -41.085938 42.46875 -38.046875 C 42.46875 -34.773438 41.554688 -32.320312 39.734375 -30.6875 C 37.910156 -29.050781 35.128906 -28.234375 31.390625 -28.234375 L 14.015625 -28.234375 L 14.015625 -47.234375 Z M 31.25 -33.140625 C 33.070312 -33.140625 34.4375 -33.546875 35.34375 -34.359375 C 36.257812 -35.179688 36.71875 -36.390625 36.71875 -37.984375 C 36.71875 -40.878906 34.894531 -42.328125 31.25 -42.328125 L 19.265625 -42.328125 L 19.265625 -33.140625 Z M 29.859375 -24.390625 C 30.648438 -24.390625 31.695312 -24.4375 33 -24.53125 L 42.1875 0 L 36.375 0 L 29.4375 -19.484375 L 19.625 -19.484375 L 19.625 0 L 14.015625 0 L 14.015625 -24.390625 Z M 29.859375 -24.390625 "/></g></g></g><g fill="#ffffff" fill-opacity="1"><g transform="translate(297.289977, 264.001485)"><g><path d="M 48.359375 -56.0625 L 48.359375 -51.15625 L 9.8125 -51.15625 L 9.8125 -4.90625 L 49.0625 -4.90625 L 49.0625 0 L 4.203125 0 L 4.203125 -56.0625 Z M 48.359375 -47.234375 L 48.359375 -42.328125 L 19.625 -42.328125 L 19.625 -35.109375 L 47.65625 -35.109375 L 47.65625 -30.203125 L 14.015625 -30.203125 L 14.015625 -47.234375 Z M 47.65625 -26.28125 L 47.65625 -21.375 L 19.625 -21.375 L 19.625 -13.734375 L 49.0625 -13.734375 L 49.0625 -8.828125 L 14.015625 -8.828125 L 14.015625 -26.28125 Z M 47.65625 -26.28125 "/></g></g></g></svg>